<svg xmlns="http://www.w3.org/2000/svg" xmlns:xlink="http://www.w3.org/1999/xlink" width="500" zoomAndPan="magnify" viewBox="0 0 375 374.999991" height="500" preserveAspectRatio="xMidYMid meet" version="1.0"><defs><g/><clipPath id="bd31334e8b"><path d="M 21 16 L 347 16 L 347 358 L 21 358 Z M 21 16 " clip-rule="nonzero"/></clipPath><clipPath id="d185d021e0"><path d="M 67.496094 -16.660156 L 358.871094 27.808594 L 307.269531 365.894531 L 15.894531 321.425781 Z M 67.496094 -16.660156 " clip-rule="nonzero"/></clipPath><clipPath id="27ec03725f"><path d="M 67.496094 -16.660156 L 358.871094 27.808594 L 307.269531 365.894531 L 15.894531 321.425781 Z M 67.496094 -16.660156 " clip-rule="nonzero"/></clipPath><clipPath id="0f0d3d6e02"><path d="M 67.496094 -16.660156 L 358.871094 27.808594 L 307.269531 365.894531 L 15.894531 321.425781 Z M 67.496094 -16.660156 " clip-rule="nonzero"/></clipPath></defs><rect x="-37.5" width="450" fill="#ffffff" y="-37.499999" height="449.999989" fill-opacity="1"/><rect x="-37.5" width="450" fill="#ffffff" y="-37.499999" height="449.999989" fill-opacity="1"/><g clip-path="url(#bd31334e8b)"><g clip-path="url(#d185d021e0)"><g clip-path="url(#27ec03725f)"><g clip-path="url(#0f0d3d6e02)"><path fill="#000000" d="M 338.171875 98.480469 L 285.734375 90.476562 L 286.589844 84.851562 L 346.5 28.421875 L 343.773438 25.53125 L 284.011719 81.832031 L 261.949219 78.464844 L 185.667969 16.636719 L 183.164062 19.71875 L 257.175781 79.703125 L 256.21875 85.972656 L 66.167969 56.96875 C 60.984375 56.175781 56.09375 59.773438 55.300781 64.957031 L 22.050781 282.832031 C 21.257812 288.015625 24.851562 292.90625 30.039062 293.699219 L 64.726562 298.992188 L 54.003906 316.628906 C 53.144531 318.046875 53.59375 319.894531 55.015625 320.761719 L 68.140625 328.746094 C 69.558594 329.605469 71.40625 329.15625 72.273438 327.738281 L 87.632812 302.496094 L 244.460938 326.433594 L 251.59375 355.105469 C 251.988281 356.71875 253.625 357.699219 255.238281 357.300781 L 270.144531 353.597656 C 271.757812 353.199219 272.738281 351.5625 272.34375 349.953125 L 267.367188 329.921875 L 302.058594 335.214844 C 307.242188 336.007812 312.132812 332.410156 312.925781 327.226562 L 346.175781 109.351562 C 346.96875 104.167969 343.375 99.277344 338.1875 98.484375 Z M 127 296.671875 C 126.878906 297.480469 126.117188 298.039062 125.308594 297.914062 L 75.824219 290.363281 C 75.011719 290.238281 74.453125 289.476562 74.578125 288.667969 L 74.679688 288.007812 C 74.800781 287.199219 75.5625 286.640625 76.371094 286.765625 L 125.855469 294.316406 C 126.667969 294.441406 127.226562 295.199219 127.101562 296.011719 Z M 128.21875 288.703125 C 128.09375 289.511719 127.332031 290.070312 126.523438 289.949219 L 77.039062 282.394531 C 76.230469 282.273438 75.671875 281.511719 75.792969 280.703125 L 75.894531 280.042969 C 76.019531 279.234375 76.777344 278.671875 77.585938 278.796875 L 127.074219 286.351562 C 127.882812 286.472656 128.441406 287.234375 128.316406 288.042969 Z M 129.433594 280.734375 C 129.308594 281.546875 128.550781 282.105469 127.738281 281.980469 L 78.253906 274.429688 C 77.445312 274.304688 76.886719 273.542969 77.007812 272.734375 L 77.109375 272.074219 C 77.234375 271.265625 77.996094 270.707031 78.804688 270.832031 L 128.289062 278.382812 C 129.097656 278.507812 129.65625 279.265625 129.535156 280.078125 Z M 196.03125 308.703125 C 190.640625 307.878906 186.941406 302.84375 187.761719 297.453125 C 188.585938 292.0625 193.621094 288.363281 199.011719 289.183594 C 204.402344 290.007812 208.101562 295.042969 207.28125 300.433594 C 206.457031 305.820312 201.421875 309.523438 196.03125 308.703125 Z M 233.394531 314.402344 C 228.003906 313.582031 224.300781 308.546875 225.125 303.15625 C 225.945312 297.765625 230.980469 294.0625 236.371094 294.886719 C 241.761719 295.710938 245.464844 300.746094 244.640625 306.132812 C 243.820312 311.523438 238.785156 315.226562 233.394531 314.402344 Z M 270.753906 320.105469 C 265.363281 319.28125 261.664062 314.246094 262.484375 308.859375 C 263.308594 303.46875 268.34375 299.765625 273.734375 300.589844 C 279.125 301.410156 282.824219 306.445312 282.003906 311.835938 C 281.179688 317.226562 276.144531 320.929688 270.753906 320.105469 Z M 299.765625 280.015625 C 298.972656 285.203125 294.082031 288.796875 288.894531 288.003906 L 56.667969 252.5625 C 51.480469 251.769531 47.886719 246.878906 48.675781 241.695312 L 72.035156 88.640625 C 72.828125 83.453125 77.71875 79.859375 82.90625 80.652344 L 315.140625 116.097656 C 320.328125 116.886719 323.921875 121.777344 323.132812 126.964844 L 299.773438 280.015625 Z M 299.765625 280.015625 " fill-opacity="1" fill-rule="nonzero"/></g></g></g></g><g fill="#000000" fill-opacity="1"><g transform="translate(103.608593, 184.959441)"><g><path d="M 9.148438 -11.085938 C 9.109375 -11.089844 9.070312 -11.097656 9.078125 -11.136719 C 9.050781 -11.21875 9.066406 -11.335938 9.078125 -11.414062 C 9.359375 -13.246094 9.632812 -15.039062 9.875 -16.875 C 10.335938 -19.917969 10.761719 -22.960938 11.1875 -26.007812 C 11.277344 -26.59375 10.953125 -27.082031 10.40625 -27.164062 C 9.898438 -27.242188 9.421875 -27.234375 8.914062 -27.3125 C 8.597656 -27.320312 8.285156 -27.367188 7.972656 -27.414062 L 7.039062 -27.558594 C 6.769531 -27.640625 6.523438 -27.597656 6.238281 -27.5625 C 5.949219 -27.484375 5.765625 -27.3125 5.710938 -26.964844 C 5.65625 -26.613281 5.597656 -26.222656 5.582031 -25.867188 L 4.773438 -19.769531 C 4.5 -17.976562 4.257812 -16.140625 3.9375 -14.3125 C 3.570312 -11.898438 3.15625 -9.449219 2.703125 -7.003906 C 2.378906 -5.140625 2.179688 -3.296875 2.085938 -1.394531 C 2.074219 -1.039062 2.097656 -0.675781 2.167969 -0.347656 C 2.207031 -0.101562 2.289062 0.148438 2.511719 0.265625 C 2.878906 0.480469 3.238281 0.734375 3.671875 0.761719 C 3.867188 0.789062 4.054688 0.859375 4.25 0.886719 C 4.984375 1.039062 5.71875 1.191406 6.460938 1.304688 C 6.773438 1.351562 7.023438 1.269531 7.226562 0.984375 C 7.4375 0.65625 7.683594 0.335938 7.855469 0.00390625 C 8.335938 -0.800781 8.820312 -1.605469 9.261719 -2.414062 C 9.75 -3.257812 10.308594 -4.050781 10.90625 -4.835938 C 11.574219 -5.808594 12.242188 -6.785156 12.949219 -7.753906 C 13 -7.828125 13.09375 -7.929688 13.191406 -8.035156 C 13.238281 -7.828125 13.296875 -7.699219 13.351562 -7.53125 C 13.757812 -6.273438 14.164062 -5.015625 14.609375 -3.753906 C 14.996094 -2.617188 15.210938 -1.425781 15.472656 -0.269531 L 16.152344 2.34375 C 16.222656 2.675781 16.476562 2.832031 16.75 2.875 C 16.859375 2.933594 16.976562 2.949219 17.09375 2.96875 C 18.503906 3.144531 19.921875 3.238281 21.316406 3.253906 C 21.671875 3.269531 21.8125 3.128906 21.867188 2.777344 C 21.917969 2.707031 21.890625 2.625 21.910156 2.507812 C 22.269531 0.40625 22.472656 -1.714844 22.949219 -3.792969 C 23.207031 -4.953125 23.386719 -6.121094 23.570312 -7.328125 C 23.785156 -8.730469 23.960938 -10.140625 24.132812 -11.550781 C 24.472656 -13.769531 24.84375 -15.949219 25.257812 -18.117188 C 25.613281 -19.9375 25.898438 -21.808594 26.21875 -23.632812 C 26.253906 -23.867188 26.210938 -24.113281 26.164062 -24.320312 C 26.121094 -24.566406 25.984375 -24.707031 25.710938 -24.75 C 25.121094 -24.796875 24.496094 -24.894531 23.910156 -24.984375 L 23.015625 -25.121094 C 22.59375 -25.222656 22.207031 -25.324219 21.785156 -25.425781 C 21.589844 -25.457031 21.433594 -25.480469 21.273438 -25.464844 C 20.878906 -25.484375 20.496094 -25.34375 20.464844 -24.871094 C 20.421875 -24.597656 20.382812 -24.324219 20.300781 -24.058594 C 19.820312 -20.902344 19.292969 -17.710938 18.765625 -14.523438 L 18.089844 -10.082031 L 18.035156 -9.730469 C 17.929688 -9.824219 17.863281 -9.914062 17.875 -9.992188 C 17.804688 -10.324219 17.730469 -10.613281 17.660156 -10.941406 C 17.460938 -11.730469 17.296875 -12.472656 17.09375 -13.222656 C 16.941406 -13.804688 16.753906 -14.390625 16.5625 -14.980469 C 16.324219 -15.773438 16.082031 -16.527344 15.84375 -17.320312 C 15.707031 -17.742188 15.574219 -18.160156 15.320312 -18.597656 C 15.132812 -18.945312 14.550781 -19.035156 14.222656 -18.726562 C 13.941406 -18.449219 13.695312 -18.128906 13.4375 -17.769531 C 12.625 -16.617188 11.84375 -15.417969 11.03125 -14.269531 C 10.472656 -13.476562 10.027344 -12.667969 9.578125 -11.816406 C 9.421875 -11.5625 9.308594 -11.339844 9.148438 -11.085938 Z M 9.148438 -11.085938 "/></g></g></g><g fill="#000000" fill-opacity="1"><g transform="translate(127.252658, 188.568059)"><g><path d="M 0.90625 -0.699219 C 0.914062 -0.5 0.882812 -0.304688 0.9375 -0.136719 C 0.972656 0.148438 1.144531 0.335938 1.417969 0.375 C 1.761719 0.46875 2.074219 0.515625 2.425781 0.570312 C 2.808594 0.667969 3.203125 0.6875 3.589844 0.785156 C 4.445312 0.917969 5.335938 1.09375 6.1875 1.261719 C 6.460938 1.304688 6.671875 1.21875 6.820312 1.039062 C 6.960938 0.902344 7.105469 0.726562 7.214844 0.542969 C 7.605469 -0.195312 8 -0.933594 8.355469 -1.714844 C 8.472656 -1.9375 8.476562 -1.976562 8.742188 -1.894531 C 9.132812 -1.835938 9.476562 -1.742188 9.867188 -1.683594 C 10.875 -1.492188 11.925781 -1.328125 12.933594 -1.136719 C 13.285156 -1.082031 13.679688 -1.0625 14.03125 -1.007812 C 14.1875 -0.984375 14.257812 -0.933594 14.269531 -0.734375 C 14.292969 -0.371094 14.3125 0.03125 14.367188 0.4375 C 14.4375 1.046875 14.535156 1.699219 14.640625 2.3125 C 14.726562 2.804688 14.835938 2.863281 15.316406 2.855469 C 15.957031 2.835938 16.632812 2.855469 17.292969 2.957031 C 17.40625 3.015625 17.527344 2.996094 17.644531 3.011719 C 18.476562 3.058594 19.34375 3.113281 20.207031 3.203125 C 20.636719 3.269531 20.957031 3 20.9375 2.597656 C 20.9375 2.078125 20.890625 1.59375 20.847656 1.109375 C 20.832031 0.945312 20.824219 0.746094 20.769531 0.578125 C 20.714844 0.132812 20.703125 -0.308594 20.652344 -0.757812 C 20.558594 -1.449219 20.433594 -2.183594 20.34375 -2.917969 C 20.21875 -4.171875 20.128906 -5.421875 20.039062 -6.671875 C 19.949219 -7.644531 19.8125 -8.582031 19.722656 -9.550781 C 19.546875 -11.015625 19.363281 -12.4375 19.222656 -13.855469 C 19.152344 -14.183594 19.117188 -14.46875 19.082031 -14.753906 C 18.972656 -15.609375 18.855469 -16.421875 18.785156 -17.269531 C 18.703125 -17.761719 18.617188 -18.253906 18.695312 -18.761719 C 18.738281 -18.792969 18.707031 -18.839844 18.71875 -18.917969 C 18.652344 -19.523438 18.625 -20.128906 18.5625 -20.773438 C 18.496094 -21.382812 18.390625 -21.996094 18.410156 -22.632812 C 18.433594 -23.308594 18.25 -23.933594 18.148438 -24.585938 C 18.125 -24.949219 18.015625 -25.285156 17.824219 -25.59375 C 17.664062 -25.855469 17.519531 -25.957031 17.207031 -26.007812 C 16.304688 -26.105469 15.410156 -26.242188 14.507812 -26.339844 C 14 -26.414062 13.496094 -26.492188 12.976562 -26.492188 C 12.613281 -26.46875 12.394531 -26.34375 12.273438 -26.082031 C 11.890625 -25.382812 11.507812 -24.722656 11.167969 -24.058594 C 10.929688 -23.535156 10.730469 -23.007812 10.488281 -22.484375 L 10.265625 -21.800781 C 9.90625 -21.019531 9.542969 -20.199219 9.179688 -19.375 C 8.773438 -18.558594 8.363281 -17.707031 7.960938 -16.890625 C 7.660156 -16.21875 7.402344 -15.578125 7.105469 -14.945312 C 6.84375 -14.269531 6.585938 -13.628906 6.285156 -12.957031 C 5.554688 -11.316406 4.820312 -9.632812 4.164062 -7.9375 C 3.574219 -6.433594 2.980469 -4.890625 2.234375 -3.40625 C 1.996094 -2.886719 1.757812 -2.363281 1.445312 -1.894531 C 1.191406 -1.53125 0.976562 -1.167969 0.90625 -0.699219 Z M 13.644531 -14.148438 C 13.652344 -13.429688 13.667969 -12.75 13.71875 -12.023438 C 13.722656 -11.265625 13.804688 -10.496094 13.96875 -9.75 C 14.054688 -9.261719 14.09375 -8.734375 14.054688 -8.222656 C 13.085938 -8.410156 12.121094 -8.597656 11.113281 -8.792969 C 11.164062 -8.863281 11.175781 -8.941406 11.226562 -9.015625 C 11.378906 -9.230469 11.496094 -9.492188 11.652344 -9.707031 C 11.972656 -10.253906 12.179688 -10.824219 12.386719 -11.390625 C 12.554688 -11.960938 12.84375 -12.554688 13.128906 -13.109375 C 13.214844 -13.417969 13.339844 -13.714844 13.457031 -13.976562 C 13.507812 -14.050781 13.558594 -14.121094 13.566406 -14.160156 Z M 13.644531 -14.148438 "/></g></g></g><g fill="#000000" fill-opacity="1"><g transform="translate(148.910182, 191.873485)"><g><path d="M 7.492188 -10.421875 L 7.414062 -10.433594 L 6.777344 -6.261719 C 6.445312 -4.082031 6.144531 -1.855469 5.851562 0.335938 C 5.753906 0.957031 5.925781 1.144531 6.472656 1.226562 C 6.867188 1.246094 7.257812 1.308594 7.648438 1.367188 L 8.347656 1.472656 C 8.621094 1.515625 8.9375 1.523438 9.210938 1.566406 C 9.570312 1.578125 9.925781 1.59375 10.242188 1.601562 C 10.445312 1.59375 10.578125 1.496094 10.648438 1.304688 C 10.671875 1.148438 10.734375 1 10.757812 0.84375 C 11.3125 -2.539062 11.832031 -5.929688 12.382812 -9.277344 C 12.621094 -10.835938 12.851562 -12.355469 13.125 -13.867188 C 13.359375 -15.148438 13.632812 -16.421875 13.828125 -17.707031 C 14 -18.558594 14.128906 -19.417969 14.261719 -20.273438 C 14.3125 -20.625 14.308594 -20.585938 14.625 -20.578125 C 15.289062 -20.476562 15.917969 -20.421875 16.59375 -20.398438 C 17.339844 -20.324219 18.058594 -20.332031 18.816406 -20.335938 C 19.257812 -20.351562 19.390625 -20.449219 19.460938 -20.917969 L 20.023438 -24.578125 C 20.082031 -24.96875 19.980469 -25.105469 19.59375 -25.164062 L 15.519531 -25.90625 C 14.082031 -26.164062 12.640625 -26.382812 11.199219 -26.605469 L 7.125 -27.347656 C 6.65625 -27.417969 6.195312 -27.527344 5.734375 -27.636719 C 5.539062 -27.667969 5.375 -27.652344 5.191406 -27.480469 C 5.082031 -27.296875 4.976562 -27.117188 4.945312 -26.921875 L 4.40625 -23.375 C 4.371094 -23.140625 4.292969 -22.914062 4.257812 -22.679688 C 4.21875 -22.40625 4.316406 -22.269531 4.550781 -22.234375 C 5.171875 -22.140625 5.792969 -22.007812 6.414062 -21.910156 C 7.199219 -21.832031 7.941406 -21.71875 8.726562 -21.636719 C 9 -21.597656 9 -21.597656 8.949219 -21.285156 L 8.652344 -19.335938 C 8.464844 -17.847656 8.359375 -16.351562 8.136719 -14.910156 C 7.949219 -13.421875 7.71875 -11.902344 7.492188 -10.421875 Z M 7.492188 -10.421875 "/></g></g></g><g fill="#000000" fill-opacity="1"><g transform="translate(165.581806, 194.417951)"><g><path d="M 8.652344 -12 C 8.726562 -12.503906 8.828125 -12.890625 8.890625 -13.316406 C 9.023438 -14.175781 9.191406 -15.027344 9.550781 -15.808594 C 9.609375 -15.921875 9.625 -16.039062 9.683594 -16.148438 C 10.117188 -17.4375 10.699219 -18.625 11.789062 -19.496094 C 11.832031 -19.527344 11.839844 -19.566406 11.882812 -19.601562 C 12.222656 -19.988281 12.703125 -20.273438 13.167969 -20.441406 C 13.628906 -20.570312 14.078125 -20.660156 14.558594 -20.667969 C 14.957031 -20.648438 15.289062 -20.476562 15.632812 -20.382812 C 16.25 -20.25 16.714844 -19.898438 17.074219 -19.367188 C 17.269531 -19.097656 17.503906 -18.785156 17.695312 -18.476562 C 17.925781 -18.160156 18.121094 -18.128906 18.421875 -18.285156 C 18.597656 -18.378906 18.808594 -18.464844 18.984375 -18.558594 C 19.902344 -19.09375 20.859375 -19.625 21.785156 -20.203125 C 22.042969 -20.324219 22.273438 -20.527344 22.5 -20.691406 C 22.683594 -20.863281 22.714844 -21.058594 22.632812 -21.308594 C 22.472656 -21.8125 22.21875 -22.25 21.925781 -22.695312 C 21.640625 -23.175781 21.222656 -23.558594 20.800781 -23.941406 C 20.007812 -24.742188 19.019531 -25.332031 17.953125 -25.652344 C 17.761719 -25.722656 17.570312 -25.75 17.417969 -25.816406 C 16.746094 -26.117188 16.074219 -26.140625 15.359375 -26.167969 C 14.605469 -26.203125 13.847656 -26.199219 13.09375 -25.957031 C 12.84375 -25.875 12.558594 -25.839844 12.304688 -25.757812 L 11.683594 -25.613281 C 11.554688 -25.554688 11.394531 -25.539062 11.265625 -25.476562 C 10.203125 -25.042969 9.269531 -24.425781 8.4375 -23.675781 C 7.695312 -22.992188 7.097656 -22.207031 6.492188 -21.378906 C 6.246094 -21.058594 6.003906 -20.777344 5.824219 -20.40625 C 5.441406 -19.707031 5.085938 -18.964844 4.773438 -18.214844 C 4.515625 -17.574219 4.296875 -16.929688 4.082031 -16.285156 C 4.011719 -16.097656 3.898438 -15.875 3.867188 -15.679688 C 3.78125 -15.09375 3.535156 -14.535156 3.375 -14 C 3.160156 -13.394531 3.019531 -12.738281 2.878906 -12.082031 C 2.777344 -11.660156 2.75 -11.226562 2.722656 -10.789062 C 2.648438 -10.042969 2.582031 -9.335938 2.707031 -8.597656 C 2.808594 -7.945312 2.867188 -7.296875 2.960938 -6.605469 C 3.007812 -6.121094 3.046875 -5.597656 3.214844 -5.132812 C 3.265625 -4.925781 3.351562 -4.710938 3.398438 -4.503906 C 3.601562 -3.476562 4.066406 -2.609375 4.570312 -1.734375 C 4.703125 -1.554688 4.835938 -1.375 4.972656 -1.234375 C 5.210938 -0.960938 5.449219 -0.683594 5.722656 -0.402344 C 6.105469 -0.0234375 6.484375 0.351562 6.957031 0.664062 C 7.285156 0.871094 7.65625 1.050781 7.976562 1.296875 C 8.65625 1.800781 9.375 2.070312 10.152344 2.1875 L 12.492188 2.542969 C 13.511719 2.660156 14.476562 2.609375 15.472656 2.359375 C 15.71875 2.320312 15.929688 2.230469 16.136719 2.183594 C 16.835938 2.050781 17.472656 1.789062 18.023438 1.316406 C 18.53125 0.875 19.082031 0.398438 19.625 -0.0351562 C 19.675781 -0.109375 19.722656 -0.140625 19.765625 -0.171875 C 20.015625 -0.496094 19.988281 -0.855469 19.714844 -1.136719 C 19.570312 -1.242188 19.476562 -1.414062 19.339844 -1.554688 C 19.277344 -1.683594 19.175781 -1.777344 19.070312 -1.875 C 18.847656 -1.988281 18.722656 -2.207031 18.589844 -2.386719 L 18.109375 -3.175781 C 17.980469 -3.355469 17.847656 -3.535156 17.722656 -3.753906 C 17.589844 -3.933594 17.46875 -4.191406 17.296875 -4.378906 C 17.058594 -4.652344 16.78125 -4.65625 16.441406 -4.507812 C 16.214844 -4.34375 15.996094 -4.21875 15.777344 -4.09375 C 15.46875 -3.898438 15.160156 -3.707031 14.863281 -3.59375 C 14.273438 -3.363281 13.644531 -3.179688 12.988281 -3.320312 L 12.910156 -3.332031 C 12.261719 -3.273438 11.667969 -3.5625 11.160156 -3.878906 C 10.53125 -4.214844 9.917969 -4.628906 9.539062 -5.285156 C 9.511719 -5.367188 9.40625 -5.464844 9.339844 -5.554688 C 8.964844 -5.96875 8.71875 -6.445312 8.609375 -7.019531 C 8.488281 -7.796875 8.398438 -8.527344 8.402344 -9.324219 C 8.398438 -9.566406 8.363281 -9.851562 8.402344 -10.121094 C 8.460938 -10.753906 8.5625 -11.414062 8.652344 -12 Z M 8.652344 -12 "/></g></g></g><g fill="#000000" fill-opacity="1"><g transform="translate(186.538176, 197.616366)"><g><path d="M 7.851562 -4.941406 L 8.167969 -7.007812 C 8.324219 -8.300781 8.527344 -9.625 8.722656 -10.910156 C 8.765625 -11.183594 8.804688 -11.179688 9.082031 -11.175781 C 9.984375 -11.078125 10.894531 -11.019531 11.828125 -10.875 C 12.808594 -10.765625 13.824219 -10.613281 14.796875 -10.460938 C 15.070312 -10.421875 15.070312 -10.421875 15.023438 -10.109375 L 14.675781 -7.847656 C 14.460938 -6.167969 14.203125 -4.492188 13.992188 -2.847656 C 13.800781 -1.324219 13.640625 0.246094 13.488281 1.777344 C 13.4375 2.089844 13.539062 2.226562 13.84375 2.3125 C 14.148438 2.398438 14.417969 2.480469 14.6875 2.519531 C 15.191406 2.636719 15.65625 2.707031 16.113281 2.859375 C 16.84375 3.050781 17.601562 3.046875 18.347656 3.117188 C 18.582031 3.15625 18.722656 3.015625 18.757812 2.78125 C 18.808594 2.710938 18.820312 2.632812 18.832031 2.554688 C 18.90625 1.808594 19.011719 1.105469 19.121094 0.40625 C 19.460938 -2.09375 19.765625 -4.601562 20.113281 -7.140625 C 20.394531 -9.25 20.671875 -11.320312 20.957031 -13.46875 C 21.234375 -15.542969 21.511719 -17.613281 21.753906 -19.730469 C 21.933594 -21.175781 22.042969 -22.675781 22.34375 -24.105469 C 22.429688 -24.410156 22.476562 -24.722656 22.523438 -25.035156 C 22.570312 -25.347656 22.4375 -25.527344 22.167969 -25.570312 C 21.394531 -25.726562 20.613281 -25.84375 19.847656 -25.800781 C 19.253906 -25.8125 18.613281 -25.792969 18.007812 -25.765625 C 17.691406 -25.773438 17.46875 -25.609375 17.378906 -25.300781 L 17.328125 -24.953125 C 17.089844 -23.910156 16.890625 -22.863281 16.726562 -21.8125 C 16.410156 -19.988281 16.164062 -18.109375 15.917969 -16.234375 C 15.867188 -15.921875 15.835938 -15.96875 15.597656 -15.964844 C 14.648438 -16.027344 13.742188 -16.085938 12.832031 -16.144531 C 12.164062 -16.207031 11.5 -16.308594 10.839844 -16.410156 C 10.527344 -16.457031 10.171875 -16.472656 9.859375 -16.519531 C 9.703125 -16.542969 9.625 -16.554688 9.6875 -16.707031 L 9.710938 -16.863281 C 9.902344 -18.109375 10.097656 -19.394531 10.328125 -20.636719 C 10.601562 -21.910156 10.757812 -23.203125 11 -24.519531 C 11.089844 -25.105469 11.179688 -25.691406 11.230469 -26.28125 C 11.28125 -26.632812 11.183594 -26.765625 10.800781 -26.863281 C 10.378906 -26.96875 9.960938 -27.113281 9.492188 -27.183594 C 8.792969 -27.289062 8.089844 -27.398438 7.382812 -27.464844 C 7.070312 -27.511719 6.746094 -27.484375 6.382812 -27.457031 C 6.183594 -27.449219 6.046875 -27.351562 6.011719 -27.117188 C 5.859375 -26.382812 5.675781 -25.691406 5.5625 -24.953125 C 5.289062 -23.679688 5.085938 -22.351562 4.851562 -21.074219 C 4.519531 -18.890625 4.144531 -16.714844 3.820312 -14.570312 C 3.632812 -13.363281 3.535156 -12.183594 3.351562 -10.972656 C 3.109375 -9.136719 2.867188 -7.296875 2.589844 -5.46875 C 2.34375 -3.871094 2.015625 -2.246094 1.734375 -0.652344 C 1.640625 -0.308594 1.589844 0.0429688 1.578125 0.359375 C 1.539062 0.632812 1.59375 0.800781 1.828125 0.835938 C 2.398438 1.003906 3.003906 1.214844 3.59375 1.265625 C 4.496094 1.363281 5.449219 1.390625 6.363281 1.410156 C 6.558594 1.441406 6.65625 1.335938 6.722656 1.144531 L 6.765625 0.875 C 6.90625 0.214844 7 -0.40625 7.140625 -1.0625 C 7.335938 -2.347656 7.617188 -3.664062 7.851562 -4.941406 Z M 7.851562 -4.941406 "/></g></g></g><g fill="#000000" fill-opacity="1"><g transform="translate(206.87131, 200.71966)"><g><path d="M 3.636719 -13.121094 L 3.675781 -13.117188 C 3.636719 -12.84375 3.546875 -12.539062 3.546875 -12.257812 C 3.238281 -10.234375 2.972656 -8.238281 2.703125 -6.207031 C 2.570312 -5.070312 2.433594 -3.933594 2.261719 -2.804688 C 2.183594 -2.019531 2.0625 -1.242188 1.945312 -0.460938 C 1.910156 -0.226562 1.867188 0.046875 1.863281 0.324219 C 1.867188 0.5625 2.007812 0.703125 2.289062 0.667969 C 2.414062 0.648438 2.574219 0.632812 2.730469 0.65625 C 3.210938 0.648438 3.722656 0.6875 4.195312 0.71875 C 4.828125 0.777344 5.488281 0.878906 6.117188 0.933594 C 6.898438 1.054688 7.648438 1.085938 8.390625 1.199219 C 9.449219 1.324219 10.46875 1.4375 11.519531 1.597656 C 12.300781 1.71875 13.113281 1.882812 13.929688 2.007812 L 14.203125 2.046875 C 14.558594 2.0625 14.660156 1.917969 14.710938 1.605469 C 14.746094 1.09375 14.820312 0.625 14.894531 0.121094 C 14.976562 -0.664062 15.09375 -1.445312 15.175781 -2.230469 C 15.191406 -2.347656 15.171875 -2.46875 15.183594 -2.546875 C 15.148438 -2.832031 15.054688 -3.007812 14.78125 -3.046875 C 14.4375 -3.140625 14.085938 -3.195312 13.742188 -3.285156 C 13.039062 -3.394531 12.304688 -3.546875 11.609375 -3.691406 C 10.953125 -3.832031 10.257812 -3.976562 9.601562 -4.117188 L 8.585938 -4.273438 C 8.042969 -4.355469 8.0625 -4.234375 8.160156 -4.855469 C 8.378906 -6.296875 8.554688 -7.707031 8.773438 -9.148438 C 9.164062 -11.441406 9.359375 -13.765625 9.59375 -16.082031 C 9.71875 -17.179688 9.769531 -18.289062 9.898438 -19.386719 C 10.203125 -21.652344 10.507812 -23.917969 10.9375 -26.207031 C 11.054688 -26.707031 10.921875 -26.886719 10.363281 -26.890625 L 10.289062 -26.902344 C 10.046875 -26.898438 9.769531 -26.902344 9.488281 -26.90625 C 9.132812 -26.917969 8.777344 -26.933594 8.382812 -26.953125 C 7.707031 -26.976562 7.027344 -26.960938 6.359375 -27.023438 C 5.960938 -27.042969 5.789062 -26.953125 5.652344 -26.574219 L 5.574219 -26.066406 L 5.007812 -22.363281 C 4.539062 -19.285156 4.070312 -16.207031 3.636719 -13.121094 Z M 3.636719 -13.121094 "/></g></g></g><g fill="#000000" fill-opacity="1"><g transform="translate(223.036526, 203.186837)"><g><path d="M 8.984375 -11.828125 C 9.285156 -14.054688 9.628906 -16.316406 9.929688 -18.542969 C 10.003906 -19.050781 10.039062 -19.523438 10.078125 -20.035156 C 10.152344 -20.542969 10.191406 -21.054688 10.230469 -21.566406 L 10.433594 -22.894531 L 10.96875 -26.398438 C 10.984375 -26.757812 10.882812 -26.890625 10.53125 -26.945312 C 10.339844 -26.976562 10.136719 -26.964844 9.980469 -26.988281 C 9.667969 -27.039062 9.390625 -27.039062 9.117188 -27.082031 C 8.378906 -27.195312 7.683594 -27.339844 6.9375 -27.414062 C 6.234375 -27.523438 6.136719 -27.417969 5.992188 -26.722656 C 5.746094 -25.640625 5.496094 -24.523438 5.246094 -23.40625 C 4.9375 -21.898438 4.738281 -20.332031 4.625 -18.792969 C 4.542969 -18.007812 4.503906 -17.21875 4.390625 -16.476562 L 3.496094 -10.632812 C 3.175781 -8.007812 2.578125 -5.390625 2.09375 -2.75 C 1.917969 -1.859375 1.828125 -0.996094 1.652344 -0.105469 C 1.605469 0.203125 1.730469 0.421875 1.984375 0.582031 C 2.097656 0.640625 2.171875 0.652344 2.289062 0.667969 L 6.070312 1.246094 C 6.304688 1.28125 6.4375 1.183594 6.480469 0.910156 C 6.53125 0.835938 6.503906 0.753906 6.523438 0.636719 C 6.613281 0.292969 6.667969 -0.0585938 6.761719 -0.402344 C 6.980469 -1.566406 7.273438 -2.71875 7.492188 -3.882812 C 7.660156 -4.734375 7.792969 -5.589844 7.960938 -6.441406 C 8.101562 -7.097656 8.203125 -7.761719 8.335938 -8.378906 C 8.546875 -9.503906 8.765625 -10.664062 8.984375 -11.828125 Z M 8.984375 -11.828125 "/></g></g></g><g fill="#000000" fill-opacity="1"><g transform="translate(231.606062, 204.494741)"><g><path d="M 10.214844 2.316406 C 10.449219 2.351562 10.683594 2.386719 10.921875 2.382812 C 11.601562 2.367188 12.292969 2.273438 13 2.101562 C 13.910156 1.882812 14.765625 1.496094 15.554688 1.019531 C 16.210938 0.640625 16.738281 0.0820312 17.253906 -0.4375 C 17.675781 -0.851562 18.054688 -1.234375 18.324219 -1.710938 C 19 -2.722656 19.488281 -3.84375 19.628906 -5.019531 C 19.71875 -5.882812 19.773438 -6.753906 19.828125 -7.621094 C 19.871094 -8.96875 19.453125 -10.152344 18.617188 -11.195312 C 18.40625 -11.386719 18.242188 -11.613281 18.039062 -11.84375 C 17.320312 -12.628906 16.558594 -13.382812 15.660156 -14.039062 C 14.875 -14.636719 14.082031 -15.199219 13.234375 -15.644531 C 12.867188 -15.863281 12.507812 -16.117188 12.15625 -16.410156 C 11.695312 -16.796875 11.550781 -17.417969 11.355469 -17.964844 C 11.363281 -18.003906 11.367188 -18.042969 11.339844 -18.128906 C 11.398438 -18.519531 11.492188 -18.863281 11.703125 -19.191406 C 12.121094 -19.84375 12.664062 -20.277344 13.523438 -20.148438 C 14.070312 -20.066406 14.652344 -19.976562 15.191406 -19.851562 C 15.765625 -19.6875 16.230469 -19.335938 16.652344 -18.953125 C 17.003906 -18.660156 17.308594 -18.292969 17.699219 -17.996094 C 17.917969 -17.84375 17.988281 -17.792969 18.214844 -17.957031 C 18.84375 -18.417969 19.476562 -18.921875 20.105469 -19.382812 L 20.796875 -19.996094 C 21.117188 -20.265625 21.398438 -20.542969 21.640625 -20.824219 C 21.820312 -20.957031 21.894531 -21.183594 21.765625 -21.363281 C 21.644531 -21.621094 21.445312 -21.890625 21.285156 -22.152344 C 21.050781 -22.429688 20.765625 -22.671875 20.492188 -22.953125 C 20.183594 -23.277344 19.917969 -23.636719 19.601562 -23.925781 C 18.464844 -25.097656 17.144531 -25.855469 15.554688 -26.140625 C 14.695312 -26.269531 13.828125 -26.324219 12.984375 -26.292969 C 12.105469 -26.265625 11.316406 -26.066406 10.578125 -25.664062 C 9.613281 -25.09375 8.679688 -24.476562 7.875 -23.640625 C 7.125 -22.917969 6.488281 -22.140625 6.132812 -21.117188 C 6.082031 -21.042969 6.027344 -20.933594 5.976562 -20.863281 C 5.8125 -20.566406 5.757812 -20.21875 5.671875 -19.910156 C 5.535156 -19.015625 5.4375 -18.113281 5.457031 -17.191406 C 5.515625 -15.507812 6.089844 -14.023438 7.394531 -12.910156 C 7.464844 -12.859375 7.5 -12.8125 7.53125 -12.769531 C 8.128906 -12.238281 8.71875 -11.667969 9.277344 -11.144531 C 9.558594 -10.902344 9.804688 -10.667969 10.050781 -10.46875 C 10.445312 -10.171875 10.878906 -9.863281 11.230469 -9.570312 C 11.589844 -9.316406 11.9375 -8.984375 12.34375 -8.761719 C 12.777344 -8.457031 13.214844 -8.191406 13.542969 -7.742188 C 13.8125 -7.421875 13.996094 -7.035156 13.972656 -6.640625 C 13.910156 -5.691406 13.539062 -4.832031 12.839844 -4.179688 C 12.796875 -4.148438 12.75 -4.117188 12.667969 -4.089844 C 12.15625 -3.886719 11.628906 -3.808594 11.0625 -4.015625 C 10.867188 -4.042969 10.675781 -4.113281 10.480469 -4.144531 C 9.566406 -4.402344 8.804688 -4.917969 8.195312 -5.609375 C 8.023438 -5.792969 7.882812 -5.933594 7.71875 -6.160156 C 7.351562 -6.613281 6.8125 -7.015625 6.5 -7.582031 C 6.375 -7.800781 6.148438 -7.875 5.894531 -7.792969 C 5.644531 -7.710938 5.425781 -7.585938 5.207031 -7.460938 C 4.449219 -6.9375 3.613281 -6.425781 2.949219 -5.730469 C 2.859375 -5.664062 2.769531 -5.597656 2.644531 -5.578125 C 2.375 -5.378906 2.351562 -5.222656 2.503906 -4.921875 L 3.046875 -3.761719 C 3.199219 -3.460938 3.269531 -3.128906 3.429688 -2.867188 C 3.734375 -2.261719 4.046875 -1.695312 4.359375 -1.128906 C 4.601562 -0.613281 5.070312 -0.304688 5.496094 0.0429688 C 5.710938 0.195312 5.972656 0.3125 6.230469 0.472656 C 7.003906 0.871094 7.679688 1.410156 8.503906 1.777344 C 9.0625 2.019531 9.589844 2.222656 10.214844 2.316406 Z M 10.214844 2.316406 "/></g></g></g><g fill="#000000" fill-opacity="1"><g transform="translate(251.627577, 207.550476)"><g><path d="M 7.492188 -10.421875 L 7.414062 -10.433594 L 6.777344 -6.261719 C 6.445312 -4.082031 6.144531 -1.855469 5.851562 0.335938 C 5.753906 0.957031 5.925781 1.144531 6.472656 1.226562 C 6.867188 1.246094 7.257812 1.308594 7.648438 1.367188 L 8.347656 1.472656 C 8.621094 1.515625 8.9375 1.523438 9.210938 1.566406 C 9.570312 1.578125 9.925781 1.59375 10.242188 1.601562 C 10.445312 1.59375 10.578125 1.496094 10.648438 1.304688 C 10.671875 1.148438 10.734375 1 10.757812 0.84375 C 11.3125 -2.539062 11.832031 -5.929688 12.382812 -9.277344 C 12.621094 -10.835938 12.851562 -12.355469 13.125 -13.867188 C 13.359375 -15.148438 13.632812 -16.421875 13.828125 -17.707031 C 14 -18.558594 14.128906 -19.417969 14.261719 -20.273438 C 14.3125 -20.625 14.308594 -20.585938 14.625 -20.578125 C 15.289062 -20.476562 15.917969 -20.421875 16.59375 -20.398438 C 17.339844 -20.324219 18.058594 -20.332031 18.816406 -20.335938 C 19.257812 -20.351562 19.390625 -20.449219 19.460938 -20.917969 L 20.023438 -24.578125 C 20.082031 -24.96875 19.980469 -25.105469 19.59375 -25.164062 L 15.519531 -25.90625 C 14.082031 -26.164062 12.640625 -26.382812 11.199219 -26.605469 L 7.125 -27.347656 C 6.65625 -27.417969 6.195312 -27.527344 5.734375 -27.636719 C 5.539062 -27.667969 5.375 -27.652344 5.191406 -27.480469 C 5.082031 -27.296875 4.976562 -27.117188 4.945312 -26.921875 L 4.40625 -23.375 C 4.371094 -23.140625 4.292969 -22.914062 4.257812 -22.679688 C 4.21875 -22.40625 4.316406 -22.269531 4.550781 -22.234375 C 5.171875 -22.140625 5.792969 -22.007812 6.414062 -21.910156 C 7.199219 -21.832031 7.941406 -21.71875 8.726562 -21.636719 C 9 -21.597656 9 -21.597656 8.949219 -21.285156 L 8.652344 -19.335938 C 8.464844 -17.847656 8.359375 -16.351562 8.136719 -14.910156 C 7.949219 -13.421875 7.71875 -11.902344 7.492188 -10.421875 Z M 7.492188 -10.421875 "/></g></g></g></svg>