<?xml version="1.0" standalone="no"?>
<!DOCTYPE svg PUBLIC "-//W3C//DTD SVG 20010904//EN"
 "http://www.w3.org/TR/2001/REC-SVG-20010904/DTD/svg10.dtd">
<svg version="1.0" xmlns="http://www.w3.org/2000/svg"
 width="500.000000pt" height="500.000000pt" viewBox="0 0 500.000000 500.000000"
 preserveAspectRatio="xMidYMid meet">
<metadata>
Created by potrace 1.14, written by Peter Selinger 2001-2017
</metadata>
<g transform="translate(0.000000,500.000000) scale(0.100000,-0.100000)"
fill="#000000" stroke="none">
<path d="M2459 4757 c-17 -23 -40 -1 196 -191 55 -45 102 -83 105 -86 3 -4 86
-71 185 -150 99 -79 182 -147 185 -150 3 -4 71 -59 153 -124 l147 -118 -6 -37
c-4 -20 -8 -39 -10 -42 -2 -3 -40 0 -86 8 -80 12 -121 18 -198 29 -19 3 -73
11 -120 19 -47 7 -103 16 -125 19 -35 4 -118 17 -205 31 -77 12 -221 35 -260
40 -25 3 -70 10 -100 15 -30 5 -75 12 -100 15 -25 3 -83 12 -130 20 -84 14
-110 18 -225 34 -94 14 -391 60 -490 76 -188 30 -432 66 -487 72 -47 4 -63 2
-91 -16 -19 -12 -40 -34 -46 -49 -6 -15 -22 -101 -36 -192 -14 -91 -28 -176
-30 -190 -2 -14 -18 -115 -34 -225 -41 -274 -42 -277 -46 -305 -2 -14 -25
-160 -50 -325 -25 -165 -48 -311 -50 -325 -2 -14 -18 -117 -35 -230 -39 -259
-39 -260 -45 -290 -3 -14 -7 -47 -10 -75 -4 -27 -8 -57 -10 -65 -2 -8 -7 -35
-10 -60 -3 -25 -15 -100 -26 -168 -10 -68 -24 -155 -29 -195 -6 -40 -13 -83
-15 -97 -21 -120 -33 -230 -28 -250 14 -58 66 -90 168 -105 22 -4 51 -8 65
-11 41 -7 214 -33 266 -39 27 -4 52 -10 56 -13 4 -4 -24 -57 -62 -119 -66
-107 -74 -124 -71 -150 1 -13 195 -133 216 -133 11 0 75 81 75 95 0 5 150 249
158 256 4 4 45 1 92 -7 47 -8 103 -16 125 -19 22 -3 51 -8 65 -11 14 -2 39 -6
55 -8 17 -3 44 -7 60 -10 17 -2 50 -8 75 -11 25 -3 70 -10 100 -15 95 -16 134
-22 165 -25 25 -3 292 -44 382 -59 15 -3 64 -10 108 -16 44 -6 103 -15 130
-20 28 -5 70 -12 95 -15 25 -3 86 -12 135 -20 274 -44 348 -55 423 -66 71 -10
83 -14 87 -33 58 -247 94 -371 111 -382 15 -10 39 -7 124 15 58 15 111 30 118
34 18 12 15 35 -18 167 -16 65 -30 123 -30 129 0 5 15 7 33 5 47 -7 223 -33
359 -55 99 -15 139 -7 176 35 24 27 32 49 41 114 7 45 14 91 16 104 3 12 7 40
10 63 3 22 12 81 20 130 8 50 28 181 44 290 43 284 42 278 46 305 18 113 35
222 40 260 3 25 10 70 15 100 5 30 12 73 15 95 7 48 24 160 30 195 2 14 15
102 30 195 39 264 55 365 65 430 6 33 26 166 46 295 19 129 40 264 46 300 34
214 23 223 -352 276 -19 3 -46 7 -59 9 -13 2 -45 7 -70 10 -25 4 -84 13 -131
20 -47 8 -105 17 -130 20 -25 4 -46 8 -47 9 -1 1 0 19 4 39 5 31 24 54 126
150 66 61 137 128 157 147 20 19 99 94 175 165 172 161 154 144 257 242 83 80
86 84 70 103 -20 24 -2 38 -242 -190 -74 -70 -151 -142 -170 -160 -19 -18
-100 -94 -179 -169 -234 -222 -221 -212 -261 -206 -19 3 -42 7 -50 10 -8 2
-37 6 -65 10 -42 5 -75 10 -130 18 -5 1 -66 47 -135 103 -69 55 -219 176 -335
269 -115 93 -219 177 -230 187 -11 9 -83 67 -160 129 -77 61 -147 117 -155
124 -12 11 -18 9 -31 -8z m-1289 -842 c25 -4 52 -9 60 -10 8 -2 38 -6 65 -9
28 -4 75 -11 105 -16 30 -5 75 -12 100 -15 25 -3 70 -10 100 -15 30 -5 116
-19 190 -30 74 -11 151 -23 170 -26 81 -12 218 -33 260 -39 25 -3 56 -8 70
-10 73 -12 160 -25 195 -30 22 -3 67 -11 100 -16 33 -6 74 -12 90 -14 17 -2
73 -10 125 -18 106 -17 133 -21 275 -42 91 -14 176 -27 450 -70 50 -8 110 -17
135 -20 25 -3 56 -8 70 -10 54 -10 94 -16 198 -30 20 -3 62 -10 92 -15 30 -5
75 -12 100 -15 91 -12 106 -16 130 -33 14 -10 34 -35 44 -57 18 -36 18 -41 2
-150 -9 -61 -19 -123 -21 -136 -4 -23 -20 -129 -80 -524 -14 -93 -28 -180 -30
-191 -2 -12 -7 -48 -11 -80 -4 -33 -9 -61 -9 -64 -1 -3 -5 -27 -9 -55 -4 -27
-10 -61 -12 -75 -5 -31 -13 -83 -20 -130 -2 -19 -9 -64 -15 -100 -6 -36 -12
-76 -14 -90 -2 -14 -13 -88 -25 -165 -61 -401 -64 -411 -123 -442 -29 -14 -91
-14 -177 2 -27 5 -131 21 -195 30 -22 4 -69 11 -105 16 -36 6 -76 12 -90 14
-80 12 -246 37 -320 49 -37 6 -206 31 -275 41 -22 3 -49 7 -60 10 -11 2 -67
11 -125 20 -58 8 -114 17 -125 19 -11 2 -42 7 -70 10 -65 9 -415 62 -530 81
-49 8 -110 18 -135 21 -25 3 -83 12 -130 19 -47 8 -105 17 -130 20 -25 3 -70
10 -100 15 -51 8 -81 13 -170 26 -19 3 -60 9 -90 14 -30 6 -73 12 -95 15 -131
16 -280 46 -300 59 -14 9 -32 30 -41 48 -21 41 -18 75 36 413 6 33 12 76 15
95 3 19 7 46 10 60 2 14 7 45 10 70 4 25 19 128 35 230 16 102 31 205 35 230
3 25 13 88 21 140 8 52 17 106 19 120 6 41 17 114 20 130 4 23 16 102 20 130
6 45 24 162 44 290 11 69 23 148 27 175 10 83 45 123 119 138 21 4 24 4 95 -8z
m135 -2564 c105 -17 208 -33 230 -36 22 -3 49 -7 60 -10 11 -2 43 -7 70 -11
60 -8 64 -9 61 -32 -3 -19 -26 -22 -101 -10 -27 4 -70 10 -95 14 -25 3 -52 7
-60 9 -8 2 -35 7 -60 10 -50 7 -221 33 -260 39 -14 2 -46 7 -72 11 -43 6 -48
9 -48 32 0 30 -29 32 275 -16z m-125 -91 c254 -37 275 -41 305 -46 17 -3 41
-7 55 -9 164 -24 171 -26 168 -48 -3 -25 -6 -25 -153 -2 -49 8 -108 17 -130
20 -36 5 -91 13 -200 31 -22 3 -49 7 -60 9 -152 19 -162 23 -152 49 8 20 3 20
167 -4z m-95 -94 c22 -3 56 -7 75 -10 118 -19 366 -58 430 -67 87 -13 112 -23
103 -45 -6 -17 -22 -16 -203 11 -52 8 -113 17 -135 20 -54 7 -164 25 -195 30
-14 3 -47 8 -75 11 -27 4 -60 10 -73 15 -19 8 -21 12 -12 29 7 13 18 19 28 16
9 -3 35 -7 57 -10z m1614 -40 c34 -15 64 -71 63 -112 -4 -100 -116 -163 -198
-110 -95 63 -71 210 38 236 35 8 58 5 97 -14z m506 -80 c53 -35 70 -106 41
-167 -33 -71 -135 -93 -195 -43 -79 66 -58 187 39 227 24 10 89 0 115 -17z
m512 -90 c34 -31 37 -38 37 -89 1 -69 -22 -104 -82 -126 -91 -33 -178 35 -169
132 7 76 52 115 135 116 35 1 49 -5 79 -33z"/>
<path d="M1455 2853 c-10 -70 -13 -93 -24 -148 -21 -108 -24 -167 -10 -176 34
-21 56 -9 95 51 42 66 47 65 65 -18 14 -60 27 -75 65 -70 20 2 28 9 31 28 2
14 15 92 29 174 14 82 23 155 20 161 -6 17 -54 25 -65 11 -5 -6 -13 -33 -17
-61 -4 -27 -9 -53 -10 -57 -1 -5 -2 -22 -3 -40 -1 -39 -13 -28 -31 30 -7 23
-19 42 -26 42 -7 0 -25 -20 -40 -45 -14 -25 -27 -45 -29 -45 -1 0 4 41 12 91
8 50 12 97 9 105 -3 8 -19 14 -35 14 -28 0 -30 -3 -36 -47z"/>
<path d="M1862 2827 c-16 -20 -152 -325 -152 -341 0 -3 16 -8 36 -12 31 -6 40
-3 54 15 14 19 22 22 53 16 30 -6 37 -12 37 -30 0 -25 11 -31 55 -30 23 0 29
5 29 20 0 23 -15 170 -19 200 -2 11 -6 52 -10 90 -4 39 -8 71 -9 72 -10 10
-66 10 -74 0z m21 -219 c-2 -5 -11 -8 -20 -8 -10 0 -13 5 -8 18 4 9 10 26 13
37 5 17 7 15 12 -10 4 -16 5 -33 3 -37z"/>
<path d="M2050 2799 c0 -8 -3 -24 -6 -36 -5 -17 0 -22 26 -28 l32 -7 -7 -71
c-4 -40 -9 -74 -10 -77 -2 -3 -6 -26 -9 -50 -4 -25 -9 -57 -12 -72 -3 -16 -2
-28 3 -29 4 0 20 -3 34 -5 26 -4 26 -2 38 73 36 229 33 218 66 217 33 -2 45
10 45 43 0 18 -7 23 -47 29 -27 3 -57 8 -68 11 -72 15 -85 15 -85 2z"/>
<path d="M2373 2753 c-32 -6 -82 -59 -104 -111 -23 -53 -29 -113 -17 -169 16
-76 112 -121 185 -86 38 18 40 28 13 63 -15 20 -21 23 -31 13 -19 -19 -43 -16
-73 8 -20 15 -26 29 -26 57 0 110 64 187 114 136 14 -14 19 -14 46 3 16 9 30
21 30 26 0 11 -50 57 -64 58 -6 0 -20 2 -31 3 -11 2 -30 1 -42 -1z"/>
<path d="M2561 2693 c-5 -21 -15 -78 -21 -128 -7 -49 -14 -99 -16 -110 -2 -11
-7 -39 -10 -62 l-6 -43 35 0 35 0 12 73 c14 91 16 98 32 93 7 -3 26 -7 41 -11
26 -5 28 -9 22 -33 -4 -15 -9 -52 -12 -83 l-5 -56 32 -5 c35 -5 40 -1 45 44 5
46 15 128 30 233 7 50 11 93 8 98 -2 4 -17 7 -34 7 -16 0 -29 -3 -30 -7 0 -8
-6 -38 -14 -78 -2 -11 -4 -26 -4 -32 -1 -8 -16 -13 -42 -13 l-41 0 6 48 c3 26
8 56 10 67 4 23 -10 35 -41 35 -17 0 -24 -8 -32 -37z"/>
<path d="M2835 2676 c-4 -12 -12 -62 -19 -116 -3 -19 -10 -69 -16 -110 -20
-141 -20 -139 -2 -138 23 1 135 -13 143 -18 9 -5 15 15 15 46 -1 17 -7 26 -21
28 -70 11 -68 7 -60 80 3 37 10 96 15 132 14 96 14 97 -21 102 -17 3 -32 0
-34 -6z"/>
<path d="M3046 2603 c-10 -75 -16 -111 -31 -206 -20 -115 -20 -114 15 -119 25
-4 31 -1 35 16 12 54 36 196 40 236 3 25 8 62 11 83 6 37 5 37 -29 37 -34 0
-35 -1 -41 -47z"/>
<path d="M3194 2585 c-28 -30 -32 -41 -30 -79 2 -36 9 -49 41 -77 20 -19 44
-38 51 -42 17 -10 18 -39 3 -54 -14 -14 -37 -7 -69 23 -25 22 -25 22 -48 4
-22 -18 -22 -20 -7 -50 56 -108 199 -77 213 46 l5 48 -58 52 c-40 36 -56 57
-52 68 8 20 36 21 64 1 20 -14 24 -13 48 8 26 22 26 23 8 43 -26 30 -57 44
-99 44 -29 0 -43 -7 -70 -35z"/>
<path d="M3417 2568 c-2 -18 -3 -34 -2 -36 3 -3 31 -10 49 -11 9 -1 3 -75 -14
-171 -22 -132 -22 -129 6 -136 14 -4 29 -3 34 2 8 8 19 63 46 239 7 47 9 50
37 51 12 1 28 2 35 3 6 0 12 14 12 30 0 28 -2 29 -72 41 -40 6 -85 13 -99 16
-24 5 -27 1 -32 -28z"/>
</g>
</svg>
